<mxfile host="65bd71144e">
    <diagram id="C5RBs43oDa-KdzZeNtuy" name="Page-1">
        <mxGraphModel dx="1494" dy="1429" grid="1" gridSize="10" guides="1" tooltips="1" connect="1" arrows="1" fold="1" page="1" pageScale="1" pageWidth="827" pageHeight="1169" math="0" shadow="0">
            <root>
                <mxCell id="WIyWlLk6GJQsqaUBKTNV-0"/>
                <mxCell id="WIyWlLk6GJQsqaUBKTNV-1" parent="WIyWlLk6GJQsqaUBKTNV-0"/>
                <mxCell id="zkfFHV4jXpPFQw0GAbJ--13" value="Curso" style="swimlane;fontStyle=0;align=center;verticalAlign=top;childLayout=stackLayout;horizontal=1;startSize=26;horizontalStack=0;resizeParent=1;resizeLast=0;collapsible=1;marginBottom=0;rounded=0;shadow=0;strokeWidth=1;swimlaneLine=1;" parent="WIyWlLk6GJQsqaUBKTNV-1" vertex="1">
                    <mxGeometry x="455" y="-160" width="130" height="70" as="geometry">
                        <mxRectangle x="340" y="380" width="170" height="26" as="alternateBounds"/>
                    </mxGeometry>
                </mxCell>
                <mxCell id="VukwovRFUjxwsNXura6--0" value="&lt;div align=&quot;center&quot;&gt;&lt;b&gt;id_curso&lt;/b&gt;&lt;/div&gt;&lt;div align=&quot;center&quot;&gt;nome&lt;/div&gt;" style="text;html=1;align=center;verticalAlign=middle;resizable=0;points=[];autosize=1;strokeColor=none;fillColor=none;" parent="zkfFHV4jXpPFQw0GAbJ--13" vertex="1">
                    <mxGeometry y="26" width="130" height="40" as="geometry"/>
                </mxCell>
                <mxCell id="VukwovRFUjxwsNXura6--56" style="edgeStyle=orthogonalEdgeStyle;rounded=1;orthogonalLoop=1;jettySize=auto;html=1;exitX=0.5;exitY=1;exitDx=0;exitDy=0;entryX=0.5;entryY=0;entryDx=0;entryDy=0;labelBackgroundColor=default;strokeColor=default;fontFamily=Helvetica;fontSize=11;fontColor=default;endArrow=none;endFill=0;" parent="WIyWlLk6GJQsqaUBKTNV-1" source="VukwovRFUjxwsNXura6--2" target="VukwovRFUjxwsNXura6--4" edge="1">
                    <mxGeometry relative="1" as="geometry"/>
                </mxCell>
                <mxCell id="14" value="1..N" style="edgeLabel;html=1;align=center;verticalAlign=middle;resizable=0;points=[];" parent="VukwovRFUjxwsNXura6--56" vertex="1" connectable="0">
                    <mxGeometry x="0.7249" y="-3" relative="1" as="geometry">
                        <mxPoint x="3" y="49" as="offset"/>
                    </mxGeometry>
                </mxCell>
                <mxCell id="VukwovRFUjxwsNXura6--71" style="edgeStyle=orthogonalEdgeStyle;shape=connector;rounded=1;orthogonalLoop=1;jettySize=auto;html=1;exitX=1;exitY=0.5;exitDx=0;exitDy=0;entryX=-0.005;entryY=0.342;entryDx=0;entryDy=0;entryPerimeter=0;labelBackgroundColor=default;strokeColor=default;fontFamily=Helvetica;fontSize=11;fontColor=default;endArrow=none;endFill=0;" parent="WIyWlLk6GJQsqaUBKTNV-1" source="VukwovRFUjxwsNXura6--2" target="VukwovRFUjxwsNXura6--0" edge="1">
                    <mxGeometry relative="1" as="geometry"/>
                </mxCell>
                <mxCell id="13" value="1..N" style="edgeLabel;html=1;align=center;verticalAlign=middle;resizable=0;points=[];" parent="VukwovRFUjxwsNXura6--71" vertex="1" connectable="0">
                    <mxGeometry x="0.6199" y="-2" relative="1" as="geometry">
                        <mxPoint as="offset"/>
                    </mxGeometry>
                </mxCell>
                <mxCell id="VukwovRFUjxwsNXura6--2" value="Composto" style="rhombus;whiteSpace=wrap;html=1;fontFamily=Helvetica;fontSize=11;fontColor=default;" parent="WIyWlLk6GJQsqaUBKTNV-1" vertex="1">
                    <mxGeometry x="160" y="-160" width="80" height="80" as="geometry"/>
                </mxCell>
                <mxCell id="VukwovRFUjxwsNXura6--4" value="Disciplina" style="swimlane;fontStyle=0;align=center;verticalAlign=top;childLayout=stackLayout;horizontal=1;startSize=26;horizontalStack=0;resizeParent=1;resizeLast=0;collapsible=1;marginBottom=0;rounded=0;shadow=0;strokeWidth=1;swimlaneLine=1;" parent="WIyWlLk6GJQsqaUBKTNV-1" vertex="1">
                    <mxGeometry x="135" y="546.5" width="130" height="86" as="geometry">
                        <mxRectangle x="340" y="380" width="170" height="26" as="alternateBounds"/>
                    </mxGeometry>
                </mxCell>
                <mxCell id="VukwovRFUjxwsNXura6--5" value="&lt;div align=&quot;center&quot;&gt;&lt;b&gt;id_disciplina&lt;/b&gt;&lt;/div&gt;&lt;div align=&quot;center&quot;&gt;nome&lt;/div&gt;&lt;div align=&quot;center&quot;&gt;descricao&lt;br&gt;&lt;/div&gt;" style="text;html=1;align=center;verticalAlign=middle;resizable=0;points=[];autosize=1;strokeColor=none;fillColor=none;" parent="VukwovRFUjxwsNXura6--4" vertex="1">
                    <mxGeometry y="26" width="130" height="60" as="geometry"/>
                </mxCell>
                <mxCell id="VukwovRFUjxwsNXura6--12" style="edgeStyle=orthogonalEdgeStyle;shape=connector;rounded=0;orthogonalLoop=1;jettySize=auto;html=1;exitX=1;exitY=0;exitDx=0;exitDy=0;labelBackgroundColor=default;strokeColor=default;fontFamily=Helvetica;fontSize=11;fontColor=default;endArrow=none;endFill=0;entryX=-0.003;entryY=0.276;entryDx=0;entryDy=0;entryPerimeter=0;" parent="WIyWlLk6GJQsqaUBKTNV-1" source="VukwovRFUjxwsNXura6--6" target="VukwovRFUjxwsNXura6--4" edge="1">
                    <mxGeometry relative="1" as="geometry">
                        <mxPoint x="120" y="566.5" as="targetPoint"/>
                        <Array as="points">
                            <mxPoint x="120" y="569.5"/>
                            <mxPoint x="135" y="570.5"/>
                        </Array>
                    </mxGeometry>
                </mxCell>
                <mxCell id="VukwovRFUjxwsNXura6--14" value="&lt;span&gt;pre_requisito&lt;/span&gt;" style="edgeLabel;html=1;align=center;verticalAlign=middle;resizable=0;points=[];fontSize=11;fontFamily=Helvetica;fontColor=default;fontStyle=0" parent="VukwovRFUjxwsNXura6--12" vertex="1" connectable="0">
                    <mxGeometry x="-0.0681" y="1" relative="1" as="geometry">
                        <mxPoint as="offset"/>
                    </mxGeometry>
                </mxCell>
                <mxCell id="20" value="0..N" style="edgeLabel;html=1;align=center;verticalAlign=middle;resizable=0;points=[];" parent="VukwovRFUjxwsNXura6--12" vertex="1" connectable="0">
                    <mxGeometry x="0.6423" relative="1" as="geometry">
                        <mxPoint as="offset"/>
                    </mxGeometry>
                </mxCell>
                <mxCell id="VukwovRFUjxwsNXura6--13" style="edgeStyle=orthogonalEdgeStyle;shape=connector;rounded=0;orthogonalLoop=1;jettySize=auto;html=1;exitX=1;exitY=1;exitDx=0;exitDy=0;entryX=0.003;entryY=0.607;entryDx=0;entryDy=0;entryPerimeter=0;labelBackgroundColor=default;strokeColor=default;fontFamily=Helvetica;fontSize=11;fontColor=default;endArrow=none;endFill=0;" parent="WIyWlLk6GJQsqaUBKTNV-1" source="VukwovRFUjxwsNXura6--6" target="VukwovRFUjxwsNXura6--5" edge="1">
                    <mxGeometry relative="1" as="geometry">
                        <Array as="points">
                            <mxPoint x="133" y="609.5"/>
                        </Array>
                    </mxGeometry>
                </mxCell>
                <mxCell id="VukwovRFUjxwsNXura6--15" value="&lt;b&gt;disciplina&lt;/b&gt;" style="edgeLabel;html=1;align=center;verticalAlign=middle;resizable=0;points=[];fontSize=11;fontFamily=Helvetica;fontColor=default;" parent="VukwovRFUjxwsNXura6--13" vertex="1" connectable="0">
                    <mxGeometry x="-0.0203" y="-1" relative="1" as="geometry">
                        <mxPoint as="offset"/>
                    </mxGeometry>
                </mxCell>
                <mxCell id="21" value="1..N" style="edgeLabel;html=1;align=center;verticalAlign=middle;resizable=0;points=[];" parent="VukwovRFUjxwsNXura6--13" vertex="1" connectable="0">
                    <mxGeometry x="0.7515" y="-1" relative="1" as="geometry">
                        <mxPoint x="-6" as="offset"/>
                    </mxGeometry>
                </mxCell>
                <mxCell id="VukwovRFUjxwsNXura6--6" value="prÃ©-requisitos" style="rhombus;whiteSpace=wrap;html=1;fontFamily=Helvetica;fontSize=11;fontColor=default;" parent="WIyWlLk6GJQsqaUBKTNV-1" vertex="1">
                    <mxGeometry x="-80" y="549.5" width="80" height="80" as="geometry"/>
                </mxCell>
                <mxCell id="VukwovRFUjxwsNXura6--20" style="edgeStyle=orthogonalEdgeStyle;rounded=1;orthogonalLoop=1;jettySize=auto;html=1;exitX=1;exitY=0.5;exitDx=0;exitDy=0;entryX=-0.018;entryY=0.322;entryDx=0;entryDy=0;entryPerimeter=0;labelBackgroundColor=default;strokeColor=default;fontFamily=Helvetica;fontSize=11;fontColor=default;endArrow=none;endFill=0;" parent="WIyWlLk6GJQsqaUBKTNV-1" source="VukwovRFUjxwsNXura6--18" target="VukwovRFUjxwsNXura6--17" edge="1">
                    <mxGeometry relative="1" as="geometry">
                        <Array as="points">
                            <mxPoint x="448" y="589.5"/>
                        </Array>
                    </mxGeometry>
                </mxCell>
                <mxCell id="4" value="0..N" style="edgeLabel;html=1;align=center;verticalAlign=middle;resizable=0;points=[];" parent="VukwovRFUjxwsNXura6--20" vertex="1" connectable="0">
                    <mxGeometry x="0.3095" y="-1" relative="1" as="geometry">
                        <mxPoint x="-9" y="-1" as="offset"/>
                    </mxGeometry>
                </mxCell>
                <mxCell id="VukwovRFUjxwsNXura6--68" style="edgeStyle=orthogonalEdgeStyle;shape=connector;rounded=1;orthogonalLoop=1;jettySize=auto;html=1;exitX=0;exitY=0.5;exitDx=0;exitDy=0;entryX=1.021;entryY=0.281;entryDx=0;entryDy=0;entryPerimeter=0;labelBackgroundColor=default;strokeColor=default;fontFamily=Helvetica;fontSize=11;fontColor=default;endArrow=none;endFill=0;" parent="WIyWlLk6GJQsqaUBKTNV-1" source="VukwovRFUjxwsNXura6--18" target="VukwovRFUjxwsNXura6--5" edge="1">
                    <mxGeometry relative="1" as="geometry"/>
                </mxCell>
                <mxCell id="3" value="1..1" style="edgeLabel;html=1;align=center;verticalAlign=middle;resizable=0;points=[];" parent="VukwovRFUjxwsNXura6--68" vertex="1" connectable="0">
                    <mxGeometry x="0.3548" y="1" relative="1" as="geometry">
                        <mxPoint x="1" as="offset"/>
                    </mxGeometry>
                </mxCell>
                <mxCell id="VukwovRFUjxwsNXura6--23" value="Sala" style="swimlane;fontStyle=0;align=center;verticalAlign=top;childLayout=stackLayout;horizontal=1;startSize=26;horizontalStack=0;resizeParent=1;resizeLast=0;collapsible=1;marginBottom=0;rounded=0;shadow=0;strokeWidth=1;swimlaneLine=1;" parent="WIyWlLk6GJQsqaUBKTNV-1" vertex="1">
                    <mxGeometry x="450" y="806.5" width="130" height="86" as="geometry">
                        <mxRectangle x="340" y="380" width="170" height="26" as="alternateBounds"/>
                    </mxGeometry>
                </mxCell>
                <mxCell id="VukwovRFUjxwsNXura6--24" value="&lt;div&gt;&lt;b&gt;predio&lt;/b&gt;&lt;/div&gt;&lt;div&gt;&lt;b&gt;sala&lt;br&gt;&lt;/b&gt;&lt;/div&gt;&lt;div align=&quot;center&quot;&gt;capacidade&lt;br&gt;&lt;/div&gt;" style="text;html=1;align=center;verticalAlign=middle;resizable=0;points=[];autosize=1;strokeColor=none;fillColor=none;" parent="VukwovRFUjxwsNXura6--23" vertex="1">
                    <mxGeometry y="26" width="130" height="60" as="geometry"/>
                </mxCell>
                <mxCell id="VukwovRFUjxwsNXura6--26" value="Modelos" style="swimlane;fontStyle=0;align=center;verticalAlign=top;childLayout=stackLayout;horizontal=1;startSize=26;horizontalStack=0;resizeParent=1;resizeLast=0;collapsible=1;marginBottom=0;rounded=0;shadow=0;strokeWidth=1;swimlaneLine=1;" parent="WIyWlLk6GJQsqaUBKTNV-1" vertex="1">
                    <mxGeometry x="-190" y="809.5" width="130" height="86" as="geometry">
                        <mxRectangle x="340" y="380" width="170" height="26" as="alternateBounds"/>
                    </mxGeometry>
                </mxCell>
                <mxCell id="VukwovRFUjxwsNXura6--27" value="&lt;div&gt;&lt;b&gt;id_modelo&lt;/b&gt;&lt;/div&gt;&lt;div&gt;nome&lt;/div&gt;&lt;div&gt;marca&lt;/div&gt;" style="text;html=1;align=center;verticalAlign=middle;resizable=0;points=[];autosize=1;strokeColor=none;fillColor=none;" parent="VukwovRFUjxwsNXura6--26" vertex="1">
                    <mxGeometry y="26" width="130" height="60" as="geometry"/>
                </mxCell>
                <mxCell id="VukwovRFUjxwsNXura6--60" style="edgeStyle=orthogonalEdgeStyle;rounded=1;orthogonalLoop=1;jettySize=auto;html=1;exitX=0.5;exitY=0;exitDx=0;exitDy=0;entryX=0.5;entryY=1;entryDx=0;entryDy=0;labelBackgroundColor=default;strokeColor=default;fontFamily=Helvetica;fontSize=11;fontColor=default;endArrow=none;endFill=0;" parent="WIyWlLk6GJQsqaUBKTNV-1" source="VukwovRFUjxwsNXura6--29" target="VukwovRFUjxwsNXura6--58" edge="1">
                    <mxGeometry relative="1" as="geometry"/>
                </mxCell>
                <mxCell id="5" value="0..N" style="edgeLabel;html=1;align=center;verticalAlign=middle;resizable=0;points=[];" parent="VukwovRFUjxwsNXura6--60" vertex="1" connectable="0">
                    <mxGeometry x="0.6892" y="1" relative="1" as="geometry">
                        <mxPoint x="1" y="8" as="offset"/>
                    </mxGeometry>
                </mxCell>
                <mxCell id="VukwovRFUjxwsNXura6--61" style="edgeStyle=orthogonalEdgeStyle;rounded=0;orthogonalLoop=1;jettySize=auto;html=1;exitX=0.5;exitY=1;exitDx=0;exitDy=0;entryX=0.5;entryY=0;entryDx=0;entryDy=0;labelBackgroundColor=default;strokeColor=default;fontFamily=Helvetica;fontSize=11;fontColor=default;endArrow=none;endFill=0;" parent="WIyWlLk6GJQsqaUBKTNV-1" source="VukwovRFUjxwsNXura6--29" target="VukwovRFUjxwsNXura6--23" edge="1">
                    <mxGeometry relative="1" as="geometry"/>
                </mxCell>
                <mxCell id="6" value="1..1" style="edgeLabel;html=1;align=center;verticalAlign=middle;resizable=0;points=[];" parent="VukwovRFUjxwsNXura6--61" vertex="1" connectable="0">
                    <mxGeometry x="0.2699" relative="1" as="geometry">
                        <mxPoint y="-11" as="offset"/>
                    </mxGeometry>
                </mxCell>
                <mxCell id="VukwovRFUjxwsNXura6--29" value="Ocorre em" style="rhombus;whiteSpace=wrap;html=1;fontFamily=Helvetica;fontSize=11;fontColor=default;" parent="WIyWlLk6GJQsqaUBKTNV-1" vertex="1">
                    <mxGeometry x="475" y="686.5" width="80" height="80" as="geometry"/>
                </mxCell>
                <mxCell id="VukwovRFUjxwsNXura6--30" value="Aluno" style="swimlane;fontStyle=0;align=center;verticalAlign=top;childLayout=stackLayout;horizontal=1;startSize=26;horizontalStack=0;resizeParent=1;resizeLast=0;collapsible=1;marginBottom=0;rounded=0;shadow=0;strokeWidth=1;swimlaneLine=1;" parent="WIyWlLk6GJQsqaUBKTNV-1" vertex="1">
                    <mxGeometry x="560" y="160" width="130" height="166" as="geometry">
                        <mxRectangle x="340" y="380" width="170" height="26" as="alternateBounds"/>
                    </mxGeometry>
                </mxCell>
                <mxCell id="VukwovRFUjxwsNXura6--31" value="&lt;div align=&quot;center&quot;&gt;&lt;b&gt;id_aluno&lt;/b&gt;&lt;/div&gt;&lt;div align=&quot;center&quot;&gt;nome&lt;/div&gt;&lt;div align=&quot;center&quot;&gt;sobrenome&lt;/div&gt;&lt;div align=&quot;center&quot;&gt;cpf&lt;/div&gt;&lt;div align=&quot;center&quot;&gt;sexo&lt;/div&gt;&lt;div align=&quot;center&quot;&gt;raca&lt;/div&gt;&lt;div align=&quot;center&quot;&gt;dt_ingresso&lt;/div&gt;&lt;div align=&quot;center&quot;&gt;&lt;u&gt;endereco&lt;/u&gt;&lt;/div&gt;&lt;div align=&quot;center&quot;&gt;&lt;u&gt;telefone&lt;/u&gt;&lt;/div&gt;" style="text;html=1;align=center;verticalAlign=middle;resizable=0;points=[];autosize=1;strokeColor=none;fillColor=none;" parent="VukwovRFUjxwsNXura6--30" vertex="1">
                    <mxGeometry y="26" width="130" height="140" as="geometry"/>
                </mxCell>
                <mxCell id="VukwovRFUjxwsNXura6--32" value="Professor" style="swimlane;fontStyle=0;align=center;verticalAlign=top;childLayout=stackLayout;horizontal=1;startSize=26;horizontalStack=0;resizeParent=1;resizeLast=0;collapsible=1;marginBottom=0;rounded=0;shadow=0;strokeWidth=1;swimlaneLine=1;" parent="WIyWlLk6GJQsqaUBKTNV-1" vertex="1">
                    <mxGeometry x="335" y="186" width="130" height="136" as="geometry">
                        <mxRectangle x="340" y="380" width="170" height="26" as="alternateBounds"/>
                    </mxGeometry>
                </mxCell>
                <mxCell id="VukwovRFUjxwsNXura6--33" value="&lt;div align=&quot;center&quot;&gt;&lt;b&gt;id_professor&lt;/b&gt;&lt;/div&gt;&lt;div align=&quot;center&quot;&gt;nome&lt;/div&gt;&lt;div align=&quot;center&quot;&gt;cpf&lt;/div&gt;&lt;div align=&quot;center&quot;&gt;dt_ingresso&lt;br&gt;&lt;/div&gt;&lt;div align=&quot;center&quot;&gt;&lt;u&gt;endereco&lt;/u&gt;&lt;/div&gt;&lt;div align=&quot;center&quot;&gt;&lt;u&gt;telefone&lt;/u&gt;&lt;/div&gt;&lt;div align=&quot;center&quot;&gt;sexo&lt;/div&gt;" style="text;html=1;align=center;verticalAlign=middle;resizable=0;points=[];autosize=1;strokeColor=none;fillColor=none;" parent="VukwovRFUjxwsNXura6--32" vertex="1">
                    <mxGeometry y="26" width="130" height="110" as="geometry"/>
                </mxCell>
                <mxCell id="VukwovRFUjxwsNXura6--39" style="edgeStyle=orthogonalEdgeStyle;shape=connector;rounded=1;orthogonalLoop=1;jettySize=auto;html=1;exitX=0.5;exitY=1;exitDx=0;exitDy=0;entryX=0.25;entryY=0;entryDx=0;entryDy=0;labelBackgroundColor=default;strokeColor=default;fontFamily=Helvetica;fontSize=11;fontColor=default;endArrow=none;endFill=0;" parent="WIyWlLk6GJQsqaUBKTNV-1" source="VukwovRFUjxwsNXura6--35" target="VukwovRFUjxwsNXura6--16" edge="1">
                    <mxGeometry relative="1" as="geometry">
                        <mxPoint x="400.00000000000045" y="486.5" as="sourcePoint"/>
                    </mxGeometry>
                </mxCell>
                <mxCell id="2" value="0..N" style="edgeLabel;html=1;align=center;verticalAlign=middle;resizable=0;points=[];" parent="VukwovRFUjxwsNXura6--39" vertex="1" connectable="0">
                    <mxGeometry x="0.4206" y="-4" relative="1" as="geometry">
                        <mxPoint as="offset"/>
                    </mxGeometry>
                </mxCell>
                <mxCell id="VukwovRFUjxwsNXura6--41" style="edgeStyle=orthogonalEdgeStyle;shape=connector;rounded=0;orthogonalLoop=1;jettySize=auto;html=1;exitX=0.5;exitY=0;exitDx=0;exitDy=0;entryX=0.5;entryY=1;entryDx=0;entryDy=0;labelBackgroundColor=default;strokeColor=default;fontFamily=Helvetica;fontSize=11;fontColor=default;endArrow=none;endFill=0;" parent="WIyWlLk6GJQsqaUBKTNV-1" source="VukwovRFUjxwsNXura6--35" target="VukwovRFUjxwsNXura6--32" edge="1">
                    <mxGeometry relative="1" as="geometry">
                        <mxPoint x="400" y="340" as="targetPoint"/>
                    </mxGeometry>
                </mxCell>
                <mxCell id="19" value="0..N" style="edgeLabel;html=1;align=center;verticalAlign=middle;resizable=0;points=[];" parent="VukwovRFUjxwsNXura6--41" vertex="1" connectable="0">
                    <mxGeometry x="0.2709" y="-1" relative="1" as="geometry">
                        <mxPoint as="offset"/>
                    </mxGeometry>
                </mxCell>
                <mxCell id="VukwovRFUjxwsNXura6--35" value="Ministra" style="rhombus;whiteSpace=wrap;html=1;fontFamily=Helvetica;fontSize=11;fontColor=default;" parent="WIyWlLk6GJQsqaUBKTNV-1" vertex="1">
                    <mxGeometry x="360" y="374" width="80" height="80" as="geometry"/>
                </mxCell>
                <mxCell id="VukwovRFUjxwsNXura6--42" style="edgeStyle=orthogonalEdgeStyle;shape=connector;rounded=0;orthogonalLoop=1;jettySize=auto;html=1;exitX=0.5;exitY=0;exitDx=0;exitDy=0;labelBackgroundColor=default;strokeColor=default;fontFamily=Helvetica;fontSize=11;fontColor=default;endArrow=none;endFill=0;entryX=0.5;entryY=1;entryDx=0;entryDy=0;" parent="WIyWlLk6GJQsqaUBKTNV-1" source="VukwovRFUjxwsNXura6--36" target="VukwovRFUjxwsNXura6--30" edge="1">
                    <mxGeometry relative="1" as="geometry">
                        <mxPoint x="624" y="354" as="targetPoint"/>
                    </mxGeometry>
                </mxCell>
                <mxCell id="12" value="0..N" style="edgeLabel;html=1;align=center;verticalAlign=middle;resizable=0;points=[];" parent="VukwovRFUjxwsNXura6--42" vertex="1" connectable="0">
                    <mxGeometry x="-0.1401" relative="1" as="geometry">
                        <mxPoint as="offset"/>
                    </mxGeometry>
                </mxCell>
                <mxCell id="VukwovRFUjxwsNXura6--47" style="edgeStyle=orthogonalEdgeStyle;shape=connector;rounded=1;orthogonalLoop=1;jettySize=auto;html=1;exitX=0.5;exitY=1;exitDx=0;exitDy=0;entryX=0.75;entryY=0;entryDx=0;entryDy=0;labelBackgroundColor=default;strokeColor=default;fontFamily=Helvetica;fontSize=11;fontColor=default;endArrow=none;endFill=0;" parent="WIyWlLk6GJQsqaUBKTNV-1" source="VukwovRFUjxwsNXura6--36" target="VukwovRFUjxwsNXura6--16" edge="1">
                    <mxGeometry relative="1" as="geometry">
                        <mxPoint x="625.0000000000005" y="486.5" as="sourcePoint"/>
                    </mxGeometry>
                </mxCell>
                <mxCell id="11" value="0..N" style="edgeLabel;html=1;align=center;verticalAlign=middle;resizable=0;points=[];" parent="VukwovRFUjxwsNXura6--47" vertex="1" connectable="0">
                    <mxGeometry x="0.2507" relative="1" as="geometry">
                        <mxPoint as="offset"/>
                    </mxGeometry>
                </mxCell>
                <mxCell id="VukwovRFUjxwsNXura6--96" style="edgeStyle=orthogonalEdgeStyle;shape=connector;rounded=0;orthogonalLoop=1;jettySize=auto;html=1;exitX=1;exitY=0.5;exitDx=0;exitDy=0;entryX=0;entryY=0.5;entryDx=0;entryDy=0;labelBackgroundColor=default;strokeColor=default;fontFamily=Helvetica;fontSize=11;fontColor=default;endArrow=none;endFill=0;dashed=1;" parent="WIyWlLk6GJQsqaUBKTNV-1" source="VukwovRFUjxwsNXura6--36" target="VukwovRFUjxwsNXura6--95" edge="1">
                    <mxGeometry relative="1" as="geometry"/>
                </mxCell>
                <mxCell id="VukwovRFUjxwsNXura6--36" value="Cursa" style="rhombus;whiteSpace=wrap;html=1;fontFamily=Helvetica;fontSize=11;fontColor=default;" parent="WIyWlLk6GJQsqaUBKTNV-1" vertex="1">
                    <mxGeometry x="585" y="374" width="80" height="80" as="geometry"/>
                </mxCell>
                <mxCell id="VukwovRFUjxwsNXura6--59" value="" style="group" parent="WIyWlLk6GJQsqaUBKTNV-1" vertex="1" connectable="0">
                    <mxGeometry x="440" y="534.5" width="150" height="112" as="geometry"/>
                </mxCell>
                <mxCell id="VukwovRFUjxwsNXura6--58" value="" style="rounded=0;whiteSpace=wrap;html=1;fontFamily=Helvetica;fontSize=11;fontColor=default;" parent="VukwovRFUjxwsNXura6--59" vertex="1">
                    <mxGeometry width="150" height="111.99999999999999" as="geometry"/>
                </mxCell>
                <mxCell id="VukwovRFUjxwsNXura6--16" value="Oferta" style="swimlane;fontStyle=0;align=center;verticalAlign=top;childLayout=stackLayout;horizontal=1;startSize=26;horizontalStack=0;resizeParent=1;resizeLast=0;collapsible=1;marginBottom=0;rounded=0;shadow=0;strokeWidth=1;swimlaneLine=1;" parent="VukwovRFUjxwsNXura6--59" vertex="1">
                    <mxGeometry x="10" y="12.218181818181817" width="130" height="87.56363636363635" as="geometry">
                        <mxRectangle x="340" y="380" width="170" height="26" as="alternateBounds"/>
                    </mxGeometry>
                </mxCell>
                <mxCell id="VukwovRFUjxwsNXura6--17" value="&lt;div align=&quot;center&quot;&gt;&lt;b&gt;id_oferta&lt;/b&gt;&lt;/div&gt;&lt;div align=&quot;center&quot;&gt;semestre&lt;/div&gt;&lt;div align=&quot;center&quot;&gt;ano&lt;br&gt;&lt;/div&gt;" style="text;html=1;align=center;verticalAlign=middle;resizable=0;points=[];autosize=1;strokeColor=none;fillColor=none;" parent="VukwovRFUjxwsNXura6--16" vertex="1">
                    <mxGeometry y="26" width="130" height="60" as="geometry"/>
                </mxCell>
                <mxCell id="VukwovRFUjxwsNXura6--65" style="edgeStyle=orthogonalEdgeStyle;rounded=1;orthogonalLoop=1;jettySize=auto;html=1;exitX=0;exitY=0.5;exitDx=0;exitDy=0;entryX=1;entryY=0.5;entryDx=0;entryDy=0;labelBackgroundColor=default;strokeColor=default;fontFamily=Helvetica;fontSize=11;fontColor=default;endArrow=none;endFill=0;" parent="WIyWlLk6GJQsqaUBKTNV-1" source="VukwovRFUjxwsNXura6--62" target="VukwovRFUjxwsNXura6--58" edge="1">
                    <mxGeometry relative="1" as="geometry"/>
                </mxCell>
                <mxCell id="1" value="1..N" style="edgeLabel;html=1;align=center;verticalAlign=middle;resizable=0;points=[];" parent="VukwovRFUjxwsNXura6--65" vertex="1" connectable="0">
                    <mxGeometry x="0.2974" y="-1" relative="1" as="geometry">
                        <mxPoint x="12" as="offset"/>
                    </mxGeometry>
                </mxCell>
                <mxCell id="VukwovRFUjxwsNXura6--76" style="edgeStyle=orthogonalEdgeStyle;shape=connector;rounded=0;orthogonalLoop=1;jettySize=auto;html=1;exitX=1;exitY=0.5;exitDx=0;exitDy=0;entryX=-0.011;entryY=0.204;entryDx=0;entryDy=0;labelBackgroundColor=default;strokeColor=default;fontFamily=Helvetica;fontSize=11;fontColor=default;endArrow=none;endFill=0;entryPerimeter=0;" parent="WIyWlLk6GJQsqaUBKTNV-1" source="VukwovRFUjxwsNXura6--62" target="VukwovRFUjxwsNXura6--64" edge="1">
                    <mxGeometry relative="1" as="geometry"/>
                </mxCell>
                <mxCell id="0" value="1..N" style="edgeLabel;html=1;align=center;verticalAlign=middle;resizable=0;points=[];" parent="VukwovRFUjxwsNXura6--76" vertex="1" connectable="0">
                    <mxGeometry x="0.396" y="-1" relative="1" as="geometry">
                        <mxPoint x="-7" y="-1" as="offset"/>
                    </mxGeometry>
                </mxCell>
                <mxCell id="VukwovRFUjxwsNXura6--62" value="Ocorre em" style="rhombus;whiteSpace=wrap;html=1;fontFamily=Helvetica;fontSize=11;fontColor=default;" parent="WIyWlLk6GJQsqaUBKTNV-1" vertex="1">
                    <mxGeometry x="640" y="549.5" width="80" height="80" as="geometry"/>
                </mxCell>
                <mxCell id="VukwovRFUjxwsNXura6--63" value="PerÃ­odo" style="swimlane;fontStyle=0;align=center;verticalAlign=top;childLayout=stackLayout;horizontal=1;startSize=26;horizontalStack=0;resizeParent=1;resizeLast=0;collapsible=1;marginBottom=0;rounded=0;shadow=0;strokeWidth=1;swimlaneLine=1;" parent="WIyWlLk6GJQsqaUBKTNV-1" vertex="1">
                    <mxGeometry x="760" y="556.5" width="130" height="66" as="geometry">
                        <mxRectangle x="340" y="380" width="170" height="26" as="alternateBounds"/>
                    </mxGeometry>
                </mxCell>
                <mxCell id="VukwovRFUjxwsNXura6--64" value="&lt;div align=&quot;center&quot;&gt;&lt;b&gt;id_periodo&lt;/b&gt;&lt;/div&gt;&lt;div align=&quot;center&quot;&gt;&lt;u&gt;horario&lt;/u&gt;&lt;br&gt;&lt;/div&gt;" style="text;html=1;align=center;verticalAlign=middle;resizable=0;points=[];autosize=1;strokeColor=none;fillColor=none;" parent="VukwovRFUjxwsNXura6--63" vertex="1">
                    <mxGeometry y="26" width="130" height="40" as="geometry"/>
                </mxCell>
                <mxCell id="VukwovRFUjxwsNXura6--72" style="edgeStyle=orthogonalEdgeStyle;rounded=1;orthogonalLoop=1;jettySize=auto;html=1;exitX=0.5;exitY=0;exitDx=0;exitDy=0;entryX=0.25;entryY=1;entryDx=0;entryDy=0;labelBackgroundColor=default;strokeColor=default;fontFamily=Helvetica;fontSize=11;fontColor=default;endArrow=none;endFill=0;" parent="WIyWlLk6GJQsqaUBKTNV-1" source="VukwovRFUjxwsNXura6--69" target="zkfFHV4jXpPFQw0GAbJ--13" edge="1">
                    <mxGeometry relative="1" as="geometry"/>
                </mxCell>
                <mxCell id="15" value="0..N" style="edgeLabel;html=1;align=center;verticalAlign=middle;resizable=0;points=[];" parent="VukwovRFUjxwsNXura6--72" vertex="1" connectable="0">
                    <mxGeometry x="0.6261" y="-2" relative="1" as="geometry">
                        <mxPoint as="offset"/>
                    </mxGeometry>
                </mxCell>
                <mxCell id="VukwovRFUjxwsNXura6--75" style="edgeStyle=orthogonalEdgeStyle;rounded=0;orthogonalLoop=1;jettySize=auto;html=1;exitX=0.5;exitY=1;exitDx=0;exitDy=0;entryX=0.5;entryY=0;entryDx=0;entryDy=0;labelBackgroundColor=default;strokeColor=default;fontFamily=Helvetica;fontSize=11;fontColor=default;endArrow=none;endFill=0;" parent="WIyWlLk6GJQsqaUBKTNV-1" source="VukwovRFUjxwsNXura6--69" target="VukwovRFUjxwsNXura6--32" edge="1">
                    <mxGeometry relative="1" as="geometry"/>
                </mxCell>
                <mxCell id="16" value="1..N" style="edgeLabel;html=1;align=center;verticalAlign=middle;resizable=0;points=[];" parent="VukwovRFUjxwsNXura6--75" vertex="1" connectable="0">
                    <mxGeometry x="-0.2897" y="-1" relative="1" as="geometry">
                        <mxPoint as="offset"/>
                    </mxGeometry>
                </mxCell>
                <mxCell id="VukwovRFUjxwsNXura6--69" value="Leciona" style="rhombus;whiteSpace=wrap;html=1;fontFamily=Helvetica;fontSize=11;fontColor=default;" parent="WIyWlLk6GJQsqaUBKTNV-1" vertex="1">
                    <mxGeometry x="360" y="10" width="80" height="80" as="geometry"/>
                </mxCell>
                <mxCell id="VukwovRFUjxwsNXura6--73" style="edgeStyle=orthogonalEdgeStyle;shape=connector;orthogonalLoop=1;jettySize=auto;html=1;exitX=0.5;exitY=0;exitDx=0;exitDy=0;entryX=0.75;entryY=1;entryDx=0;entryDy=0;labelBackgroundColor=default;strokeColor=default;fontFamily=Helvetica;fontSize=11;fontColor=default;endArrow=none;endFill=0;rounded=1;" parent="WIyWlLk6GJQsqaUBKTNV-1" source="VukwovRFUjxwsNXura6--70" target="zkfFHV4jXpPFQw0GAbJ--13" edge="1">
                    <mxGeometry relative="1" as="geometry"/>
                </mxCell>
                <mxCell id="17" value="1..1" style="edgeLabel;html=1;align=center;verticalAlign=middle;resizable=0;points=[];" parent="VukwovRFUjxwsNXura6--73" vertex="1" connectable="0">
                    <mxGeometry x="0.5849" y="-1" relative="1" as="geometry">
                        <mxPoint as="offset"/>
                    </mxGeometry>
                </mxCell>
                <mxCell id="VukwovRFUjxwsNXura6--74" style="edgeStyle=orthogonalEdgeStyle;rounded=0;orthogonalLoop=1;jettySize=auto;html=1;exitX=0.5;exitY=1;exitDx=0;exitDy=0;entryX=0.5;entryY=0;entryDx=0;entryDy=0;labelBackgroundColor=default;strokeColor=default;fontFamily=Helvetica;fontSize=11;fontColor=default;endArrow=none;endFill=0;" parent="WIyWlLk6GJQsqaUBKTNV-1" source="VukwovRFUjxwsNXura6--70" target="VukwovRFUjxwsNXura6--30" edge="1">
                    <mxGeometry relative="1" as="geometry"/>
                </mxCell>
                <mxCell id="18" value="0..N" style="edgeLabel;html=1;align=center;verticalAlign=middle;resizable=0;points=[];" parent="VukwovRFUjxwsNXura6--74" vertex="1" connectable="0">
                    <mxGeometry x="-0.1491" relative="1" as="geometry">
                        <mxPoint as="offset"/>
                    </mxGeometry>
                </mxCell>
                <mxCell id="VukwovRFUjxwsNXura6--70" value="Matriculado" style="rhombus;whiteSpace=wrap;html=1;fontFamily=Helvetica;fontSize=11;fontColor=default;" parent="WIyWlLk6GJQsqaUBKTNV-1" vertex="1">
                    <mxGeometry x="585" y="10" width="80" height="80" as="geometry"/>
                </mxCell>
                <mxCell id="VukwovRFUjxwsNXura6--81" value="Equipamento" style="swimlane;fontStyle=0;align=center;verticalAlign=top;childLayout=stackLayout;horizontal=1;startSize=26;horizontalStack=0;resizeParent=1;resizeLast=0;collapsible=1;marginBottom=0;rounded=0;shadow=0;strokeWidth=1;swimlaneLine=1;" parent="WIyWlLk6GJQsqaUBKTNV-1" vertex="1">
                    <mxGeometry x="135" y="809.5" width="130" height="86" as="geometry">
                        <mxRectangle x="340" y="380" width="170" height="26" as="alternateBounds"/>
                    </mxGeometry>
                </mxCell>
                <mxCell id="VukwovRFUjxwsNXura6--82" value="&lt;div align=&quot;center&quot;&gt;&lt;b&gt;id_equipamento&lt;/b&gt;&lt;/div&gt;&lt;div align=&quot;center&quot;&gt;id_modelo&lt;/div&gt;&lt;div align=&quot;center&quot;&gt;data_aquisicao&lt;br&gt;&lt;/div&gt;" style="text;html=1;align=center;verticalAlign=middle;resizable=0;points=[];autosize=1;strokeColor=none;fillColor=none;" parent="VukwovRFUjxwsNXura6--81" vertex="1">
                    <mxGeometry y="26" width="130" height="60" as="geometry"/>
                </mxCell>
                <mxCell id="VukwovRFUjxwsNXura6--87" style="edgeStyle=orthogonalEdgeStyle;shape=connector;rounded=0;orthogonalLoop=1;jettySize=auto;html=1;exitX=0;exitY=0.5;exitDx=0;exitDy=0;entryX=1.014;entryY=0.289;entryDx=0;entryDy=0;entryPerimeter=0;labelBackgroundColor=default;strokeColor=default;fontFamily=Helvetica;fontSize=11;fontColor=default;endArrow=none;endFill=0;" parent="WIyWlLk6GJQsqaUBKTNV-1" source="VukwovRFUjxwsNXura6--85" target="VukwovRFUjxwsNXura6--27" edge="1">
                    <mxGeometry relative="1" as="geometry"/>
                </mxCell>
                <mxCell id="9" value="1..1" style="edgeLabel;html=1;align=center;verticalAlign=middle;resizable=0;points=[];" parent="VukwovRFUjxwsNXura6--87" vertex="1" connectable="0">
                    <mxGeometry x="0.3377" y="1" relative="1" as="geometry">
                        <mxPoint as="offset"/>
                    </mxGeometry>
                </mxCell>
                <mxCell id="VukwovRFUjxwsNXura6--94" style="edgeStyle=orthogonalEdgeStyle;rounded=0;orthogonalLoop=1;jettySize=auto;html=1;exitX=1;exitY=0.5;exitDx=0;exitDy=0;entryX=-0.007;entryY=0.291;entryDx=0;entryDy=0;entryPerimeter=0;labelBackgroundColor=default;strokeColor=default;fontFamily=Helvetica;fontSize=11;fontColor=default;endArrow=none;endFill=0;" parent="WIyWlLk6GJQsqaUBKTNV-1" source="VukwovRFUjxwsNXura6--85" target="VukwovRFUjxwsNXura6--82" edge="1">
                    <mxGeometry relative="1" as="geometry">
                        <Array as="points">
                            <mxPoint x="134" y="852.5"/>
                        </Array>
                    </mxGeometry>
                </mxCell>
                <mxCell id="10" value="1..N" style="edgeLabel;html=1;align=center;verticalAlign=middle;resizable=0;points=[];" parent="VukwovRFUjxwsNXura6--94" vertex="1" connectable="0">
                    <mxGeometry x="0.703" y="1" relative="1" as="geometry">
                        <mxPoint x="-16" y="-2" as="offset"/>
                    </mxGeometry>
                </mxCell>
                <mxCell id="VukwovRFUjxwsNXura6--85" value="pertence a" style="rhombus;whiteSpace=wrap;html=1;fontFamily=Helvetica;fontSize=11;fontColor=default;" parent="WIyWlLk6GJQsqaUBKTNV-1" vertex="1">
                    <mxGeometry y="812.5" width="80" height="80" as="geometry"/>
                </mxCell>
                <mxCell id="VukwovRFUjxwsNXura6--91" style="edgeStyle=orthogonalEdgeStyle;shape=connector;rounded=1;orthogonalLoop=1;jettySize=auto;html=1;exitX=1;exitY=0.5;exitDx=0;exitDy=0;entryX=-0.005;entryY=0.297;entryDx=0;entryDy=0;entryPerimeter=0;labelBackgroundColor=default;strokeColor=default;fontFamily=Helvetica;fontSize=11;fontColor=default;endArrow=none;endFill=0;" parent="WIyWlLk6GJQsqaUBKTNV-1" source="VukwovRFUjxwsNXura6--86" target="VukwovRFUjxwsNXura6--24" edge="1">
                    <mxGeometry relative="1" as="geometry"/>
                </mxCell>
                <mxCell id="7" value="0..1" style="edgeLabel;html=1;align=center;verticalAlign=middle;resizable=0;points=[];" parent="VukwovRFUjxwsNXura6--91" vertex="1" connectable="0">
                    <mxGeometry x="0.7191" relative="1" as="geometry">
                        <mxPoint x="-12" y="-1" as="offset"/>
                    </mxGeometry>
                </mxCell>
                <mxCell id="VukwovRFUjxwsNXura6--93" style="edgeStyle=orthogonalEdgeStyle;rounded=1;orthogonalLoop=1;jettySize=auto;html=1;exitX=0;exitY=0.5;exitDx=0;exitDy=0;entryX=1.014;entryY=0.219;entryDx=0;entryDy=0;entryPerimeter=0;labelBackgroundColor=default;strokeColor=default;fontFamily=Helvetica;fontSize=11;fontColor=default;endArrow=none;endFill=0;" parent="WIyWlLk6GJQsqaUBKTNV-1" source="VukwovRFUjxwsNXura6--86" target="VukwovRFUjxwsNXura6--82" edge="1">
                    <mxGeometry relative="1" as="geometry"/>
                </mxCell>
                <mxCell id="8" value="0..N" style="edgeLabel;html=1;align=center;verticalAlign=middle;resizable=0;points=[];" parent="VukwovRFUjxwsNXura6--93" vertex="1" connectable="0">
                    <mxGeometry x="0.3486" y="1" relative="1" as="geometry">
                        <mxPoint as="offset"/>
                    </mxGeometry>
                </mxCell>
                <mxCell id="VukwovRFUjxwsNXura6--86" value="estÃ¡ em" style="rhombus;whiteSpace=wrap;html=1;fontFamily=Helvetica;fontSize=11;fontColor=default;" parent="WIyWlLk6GJQsqaUBKTNV-1" vertex="1">
                    <mxGeometry x="320" y="809.5" width="80" height="80" as="geometry"/>
                </mxCell>
                <mxCell id="VukwovRFUjxwsNXura6--95" value="&lt;div&gt;nota&lt;/div&gt;&lt;div&gt;presenca&lt;br&gt;&lt;/div&gt;" style="rounded=0;whiteSpace=wrap;html=1;fontFamily=Helvetica;fontSize=11;fontColor=default;" parent="WIyWlLk6GJQsqaUBKTNV-1" vertex="1">
                    <mxGeometry x="700" y="394" width="60" height="40" as="geometry"/>
                </mxCell>
                <mxCell id="rvBI4Uhj19xE3W1wKUVM-1" value="" style="group" parent="WIyWlLk6GJQsqaUBKTNV-1" vertex="1" connectable="0">
                    <mxGeometry x="303.5" y="543" width="93" height="93" as="geometry"/>
                </mxCell>
                <mxCell id="rvBI4Uhj19xE3W1wKUVM-0" value="" style="rhombus;whiteSpace=wrap;html=1;" parent="rvBI4Uhj19xE3W1wKUVM-1" vertex="1">
                    <mxGeometry width="93" height="93" as="geometry"/>
                </mxCell>
                <mxCell id="VukwovRFUjxwsNXura6--18" value="&lt;div&gt;Possui&lt;/div&gt;" style="rhombus;whiteSpace=wrap;html=1;fontFamily=Helvetica;fontSize=11;fontColor=default;fillStyle=auto;" parent="rvBI4Uhj19xE3W1wKUVM-1" vertex="1">
                    <mxGeometry x="6.5" y="6.5" width="80" height="80" as="geometry"/>
                </mxCell>
                <mxCell id="22" value="Campus" style="swimlane;fontStyle=0;childLayout=stackLayout;horizontal=1;startSize=30;horizontalStack=0;resizeParent=1;resizeParentMax=0;resizeLast=0;collapsible=1;marginBottom=0;whiteSpace=wrap;html=1;" vertex="1" parent="WIyWlLk6GJQsqaUBKTNV-1">
                    <mxGeometry x="790" y="-170" width="140" height="90" as="geometry"/>
                </mxCell>
                <mxCell id="26" value="id_campus&lt;br&gt;nome&lt;br&gt;&lt;u&gt;endereco&lt;/u&gt;" style="text;html=1;align=center;verticalAlign=middle;resizable=0;points=[];autosize=1;strokeColor=none;fillColor=none;" vertex="1" parent="22">
                    <mxGeometry y="30" width="140" height="60" as="geometry"/>
                </mxCell>
                <mxCell id="29" value="Oferece" style="rhombus;whiteSpace=wrap;html=1;fontStyle=1" vertex="1" parent="WIyWlLk6GJQsqaUBKTNV-1">
                    <mxGeometry x="650" y="-160" width="80" height="80" as="geometry"/>
                </mxCell>
                <mxCell id="31" value="" style="endArrow=none;html=1;exitX=1;exitY=0.5;exitDx=0;exitDy=0;entryX=0.011;entryY=0.311;entryDx=0;entryDy=0;entryPerimeter=0;" edge="1" parent="WIyWlLk6GJQsqaUBKTNV-1" source="29" target="26">
                    <mxGeometry width="50" height="50" relative="1" as="geometry">
                        <mxPoint x="860" y="20" as="sourcePoint"/>
                        <mxPoint x="910" y="-30" as="targetPoint"/>
                    </mxGeometry>
                </mxCell>
                <mxCell id="33" value="1..N" style="edgeLabel;html=1;align=center;verticalAlign=middle;resizable=0;points=[];" vertex="1" connectable="0" parent="31">
                    <mxGeometry x="0.4895" y="2" relative="1" as="geometry">
                        <mxPoint as="offset"/>
                    </mxGeometry>
                </mxCell>
                <mxCell id="32" value="" style="endArrow=none;html=1;exitX=0.999;exitY=0.367;exitDx=0;exitDy=0;exitPerimeter=0;entryX=0;entryY=0.5;entryDx=0;entryDy=0;" edge="1" parent="WIyWlLk6GJQsqaUBKTNV-1" source="VukwovRFUjxwsNXura6--0" target="29">
                    <mxGeometry width="50" height="50" relative="1" as="geometry">
                        <mxPoint x="860" y="20" as="sourcePoint"/>
                        <mxPoint x="910" y="-30" as="targetPoint"/>
                    </mxGeometry>
                </mxCell>
                <mxCell id="34" value="1..N" style="edgeLabel;html=1;align=center;verticalAlign=middle;resizable=0;points=[];" vertex="1" connectable="0" parent="32">
                    <mxGeometry x="-0.577" y="1" relative="1" as="geometry">
                        <mxPoint as="offset"/>
                    </mxGeometry>
                </mxCell>
            </root>
        </mxGraphModel>
    </diagram>
</mxfile>